<?xml version="1.0" standalone="no"?>
<!DOCTYPE svg PUBLIC "-//W3C//DTD SVG 20010904//EN"
 "http://www.w3.org/TR/2001/REC-SVG-20010904/DTD/svg10.dtd">
<svg version="1.0" xmlns="http://www.w3.org/2000/svg"
 width="510.000000pt" height="490.000000pt" viewBox="0 0 510.000000 490.000000"
 preserveAspectRatio="xMidYMid meet">

<g transform="translate(0.000000,490.000000) scale(0.100000,-0.100000)"
fill="#FFFFFF" stroke="none">
<path d="M1885 4649 c-189 -26 -406 -113 -547 -219 -497 -375 -612 -1036 -271
-1549 165 -247 435 -425 748 -493 93 -20 352 -16 455 6 352 76 650 305 808
621 39 79 87 232 102 327 18 109 8 341 -18 438 -118 443 -454 761 -902 855
-94 20 -283 27 -375 14z m363 -250 c360 -83 634 -372 697 -736 19 -109 19
-188 0 -298 -76 -435 -461 -755 -910 -755 -452 0 -837 318 -915 757 -18 100
-8 296 20 393 49 170 165 345 304 456 231 184 518 250 804 183z"/>
<path d="M4128 3171 l-33 -29 -3 -271 -3 -271 -264 0 -265 0 -30 -27 c-57 -51
-42 -147 26 -173 14 -6 138 -10 279 -10 l254 0 3 -276 3 -276 33 -29 c45 -40
99 -40 144 0 l33 29 3 276 3 276 269 0 270 0 30 28 c22 19 33 39 37 69 5 39 2
46 -30 78 l-35 35 -271 0 -271 0 0 250 c0 269 -5 301 -51 334 -38 26 -93 21
-131 -13z"/>
<path d="M1505 2274 c-132 -18 -235 -40 -324 -70 -496 -165 -864 -576 -971
-1082 -30 -140 -38 -388 -16 -464 34 -118 157 -210 341 -257 253 -63 526 -74
1708 -68 897 4 1022 8 1212 38 290 45 459 142 501 287 25 85 14 349 -20 495
-65 277 -198 509 -406 711 -208 201 -435 321 -732 388 -88 20 -125 21 -678 23
-322 2 -598 1 -615 -1z m1235 -248 c258 -51 470 -164 655 -350 228 -229 338
-482 352 -804 l6 -143 -29 -30 c-61 -64 -255 -100 -644 -120 -295 -14 -2086
-7 -2245 10 -226 24 -357 58 -409 106 -25 23 -26 29 -26 122 0 640 486 1166
1129 1223 53 4 328 7 611 5 428 -2 529 -6 600 -19z"/>
</g>
</svg>
